<svg width="419" height="106" viewBox="0 0 419 106" fill="none" xmlns="http://www.w3.org/2000/svg">
<path d="M53.935 35.736C53.935 38.3813 53.2097 40.7493 51.759 42.84C50.3083 44.888 48.3243 46.5947 45.807 47.96C47.4283 49.0693 48.7083 50.4347 49.647 52.056C50.6283 53.6347 51.119 55.384 51.119 57.304C51.119 59.608 50.415 61.8907 49.007 64.152C47.6417 66.3707 45.807 68.3547 43.503 70.104C41.199 71.8107 38.575 73.1973 35.631 74.264C32.687 75.3307 29.679 75.864 26.607 75.864C23.279 75.864 20.3563 75.224 17.839 73.944C15.3643 72.7067 13.423 70.936 12.015 68.632C12.4417 67.352 12.9963 65.7733 13.679 63.896C14.4043 61.976 15.1937 59.9707 16.047 57.88C16.9003 55.7467 17.7537 53.6347 18.607 51.544C19.503 49.4533 20.335 47.576 21.103 45.912C22.7243 42.2853 24.175 39.2773 25.455 36.888C26.735 34.4987 27.9083 32.6 28.975 31.192C26.6283 31.9173 24.495 32.7493 22.575 33.688C20.655 34.584 19.247 35.4587 18.351 36.312C17.967 36.056 17.5617 35.672 17.135 35.16C16.751 34.648 16.367 34.0933 15.983 33.496C15.6417 32.856 15.343 32.216 15.087 31.576C14.8737 30.936 14.7457 30.36 14.703 29.848C15.8123 29.08 17.2417 28.3547 18.991 27.672C20.783 26.9467 22.7243 26.328 24.815 25.816C26.9057 25.304 29.039 24.8987 31.215 24.6C33.4337 24.3013 35.5457 24.152 37.551 24.152C42.671 24.152 46.6817 25.176 49.583 27.224C52.4843 29.272 53.935 32.1093 53.935 35.736ZM29.551 51.032C28.7403 50.648 27.9937 50.072 27.311 49.304C26.3297 51.48 25.391 53.6133 24.495 55.704C23.6417 57.7947 22.8737 59.736 22.191 61.528C21.5083 63.32 20.9537 64.8773 20.527 66.2C20.1003 67.5227 19.8657 68.4827 19.823 69.08C20.4203 69.4213 21.1243 69.6773 21.935 69.848C22.7883 70.0187 23.8337 70.104 25.071 70.104C27.9723 70.104 30.7457 69.6987 33.391 68.888C36.0363 68.0773 38.3617 66.9893 40.367 65.624C42.3723 64.216 43.9723 62.616 45.167 60.824C46.3617 59.032 46.959 57.1547 46.959 55.192C46.959 52.376 45.743 50.3493 43.311 49.112C39.983 50.4773 36.2283 51.16 32.047 51.16C31.4497 51.16 30.9803 51.16 30.639 51.16C30.3403 51.16 29.9777 51.1173 29.551 51.032ZM41.967 28.824C41.071 28.824 40.111 28.888 39.087 29.016C38.1057 29.1013 37.0603 29.2507 35.951 29.464C36.1217 29.6347 36.2497 29.8267 36.335 30.04C36.463 30.2107 36.5697 30.4027 36.655 30.616C36.271 31.128 35.8017 31.8747 35.247 32.856C34.6923 33.8373 34.0737 34.9893 33.391 36.312C32.7083 37.592 31.983 39.0213 31.215 40.6C30.4897 42.1787 29.743 43.8 28.975 45.464C29.7003 45.2933 30.575 45.1653 31.599 45.08C32.6657 44.952 33.711 44.888 34.735 44.888C35.2897 44.888 35.823 44.9093 36.335 44.952C36.8897 44.9947 37.423 45.0587 37.935 45.144C39.983 44.8027 41.8177 44.312 43.439 43.672C45.103 42.9893 46.5323 42.2213 47.727 41.368C48.9217 40.472 49.839 39.4907 50.479 38.424C51.119 37.3573 51.439 36.2267 51.439 35.032C51.439 32.984 50.6283 31.448 49.007 30.424C47.3857 29.3573 45.039 28.824 41.967 28.824ZM72.616 69.592C71.8053 68.9093 71.2507 68.056 70.952 67.032C70.696 66.008 70.568 65.1333 70.568 64.408C70.568 63.512 70.6747 62.744 70.888 62.104C70.7173 62.104 70.3333 62.4453 69.736 63.128C69.1387 63.8107 68.4773 64.6213 67.752 65.56C67.0693 66.4987 66.3867 67.416 65.704 68.312C65.0213 69.208 64.5093 69.8693 64.168 70.296C63.6133 70.8933 63.08 71.3627 62.568 71.704C62.0987 72.0453 61.7147 72.2373 61.416 72.28C60.7333 72.2373 60.008 72.088 59.24 71.832C58.5147 71.6187 57.8107 71.2987 57.128 70.872C56.488 70.4453 55.912 69.9333 55.4 69.336C54.9307 68.7387 54.6107 68.056 54.44 67.288C54.44 66.0933 54.4613 65.112 54.504 64.344C54.5893 63.576 54.7387 62.744 54.952 61.848C55.336 60.2267 55.8907 58.392 56.616 56.344C57.384 54.296 58.2587 52.2907 59.24 50.328C60.2213 48.3227 61.3093 46.4667 62.504 44.76C63.7413 43.0107 65.0427 41.6453 66.408 40.664C66.792 40.664 67.24 40.7067 67.752 40.792C68.264 40.8347 68.776 40.9413 69.288 41.112C69.8427 41.2827 70.3547 41.496 70.824 41.752C71.336 41.9653 71.7627 42.264 72.104 42.648C71.72 43.0747 70.7387 44.504 69.16 46.936C67.624 49.368 65.896 52.8667 63.976 57.432C63.7627 57.9013 63.5067 58.584 63.208 59.48C62.9093 60.376 62.6107 61.3147 62.312 62.296C62.0133 63.2773 61.7573 64.2373 61.544 65.176C61.3733 66.1147 61.288 66.8613 61.288 67.416C61.288 67.7573 61.3307 68.0133 61.416 68.184C61.544 68.3547 61.6507 68.4827 61.736 68.568C62.376 68.312 63.1867 67.608 64.168 66.456C65.1493 65.304 66.5147 63.5333 68.264 61.144C68.6907 60.5467 69.1813 59.864 69.736 59.096C70.3333 58.328 70.9307 57.5173 71.528 56.664C72.1253 55.768 72.68 54.8507 73.192 53.912C73.7467 52.9733 74.1947 52.0347 74.536 51.096C74.7067 50.584 74.92 49.9867 75.176 49.304C75.4747 48.5787 75.816 47.832 76.2 47.064C76.6267 46.296 77.096 45.528 77.608 44.76C78.1627 43.9493 78.8027 43.2027 79.528 42.52C80.0827 42.52 80.68 42.584 81.32 42.712C81.96 42.84 82.5573 43.0107 83.112 43.224C83.7093 43.3947 84.2213 43.608 84.648 43.864C85.0747 44.0773 85.3947 44.312 85.608 44.568C84.84 46.4453 83.9867 48.3013 83.048 50.136C82.1093 51.9707 81.2347 53.784 80.424 55.576C79.6133 57.3253 78.9307 59.0747 78.376 60.824C77.8213 62.5733 77.544 64.28 77.544 65.944C77.544 66.84 77.608 67.6293 77.736 68.312C77.9067 68.952 78.0773 69.5067 78.248 69.976C78.4187 70.4027 78.568 70.7653 78.696 71.064C78.8667 71.3627 78.952 71.6187 78.952 71.832C78.952 71.8747 78.9093 71.9387 78.824 72.024C78.7813 72.0667 78.7387 72.088 78.696 72.088C78.3973 72.088 78.0133 72.024 77.544 71.896C77.0747 71.768 76.5413 71.576 75.944 71.32C75.3893 71.1067 74.8133 70.8507 74.216 70.552C73.6613 70.2533 73.128 69.9333 72.616 69.592ZM85.297 69.72C85.5103 68.4827 85.873 66.8613 86.385 64.856C86.9397 62.808 87.5797 60.6533 88.305 58.392C89.0303 56.088 89.7983 53.784 90.609 51.48C91.4197 49.176 92.209 47.1067 92.977 45.272C93.5317 43.9493 94.0223 42.9253 94.449 42.2C94.8757 41.432 95.345 40.792 95.857 40.28C96.4543 40.3653 97.073 40.5147 97.713 40.728C98.353 40.9413 98.9717 41.1973 99.569 41.496C100.166 41.7947 100.7 42.1147 101.169 42.456C101.638 42.7547 102.001 43.0533 102.257 43.352C101.105 44.7173 100.081 46.2747 99.185 48.024C98.3317 49.7733 97.457 52.0133 96.561 54.744C98.865 52.696 100.892 50.7333 102.641 48.856C104.433 46.9787 106.097 44.888 107.633 42.584C107.889 42.3707 108.337 42.264 108.977 42.264C109.574 42.264 110.15 42.3707 110.705 42.584C111.26 42.7547 111.644 43.0107 111.857 43.352C111.089 45.4 110.705 47.4267 110.705 49.432C110.705 51.3093 110.982 52.7173 111.537 53.656C111.494 53.912 111.196 54.4027 110.641 55.128C110.129 55.8533 109.553 56.536 108.913 57.176C107.761 56.5787 106.737 55.768 105.841 54.744C104.945 53.6773 104.284 52.5253 103.857 51.288C101.852 52.696 100.145 54.0827 98.737 55.448C97.329 56.7707 96.113 58.264 95.089 59.928C94.1077 61.5493 93.2543 63.4267 92.529 65.56C91.8463 67.6933 91.185 70.232 90.545 73.176C90.161 73.1333 89.6917 72.984 89.137 72.728C88.625 72.5147 88.0917 72.2373 87.537 71.896C87.025 71.5547 86.5557 71.192 86.129 70.808C85.7023 70.424 85.425 70.0613 85.297 69.72ZM99.7175 90.072C99.7175 89.816 99.8028 89.5813 99.9735 89.368C100.144 89.1547 100.336 88.9413 100.549 88.728C101.061 89.1973 101.509 89.56 101.893 89.816C102.235 90.072 102.576 90.2853 102.917 90.456C103.216 90.6267 103.536 90.7333 103.877 90.776C104.219 90.8187 104.624 90.84 105.093 90.84C107.312 90.84 109.424 90.2427 111.43 89.048C113.435 87.896 115.312 86.2107 117.062 83.992C118.854 81.7733 120.475 79.064 121.926 75.864C123.376 72.664 124.656 69.0373 125.766 64.984C125.254 65.496 124.614 66.072 123.846 66.712C123.12 67.3093 122.352 67.8853 121.542 68.44C120.731 68.9947 119.92 69.5067 119.11 69.976C118.342 70.4453 117.68 70.7867 117.126 71C116.4 70.872 115.718 70.5733 115.078 70.104C114.48 69.592 113.947 68.9733 113.478 68.248C113.008 67.5227 112.646 66.712 112.39 65.816C112.134 64.8773 112.006 63.896 112.006 62.872C112.006 61.208 112.304 59.5013 112.902 57.752C113.542 56.0027 114.374 54.296 115.398 52.632C116.422 50.9253 117.616 49.3253 118.982 47.832C120.39 46.3387 121.862 45.0373 123.398 43.928C124.976 42.8187 126.555 41.944 128.134 41.304C129.755 40.6213 131.334 40.28 132.87 40.28C134.363 40.28 135.472 40.6 136.198 41.24C136.966 41.8373 137.52 42.8827 137.862 44.376C137.392 44.12 136.795 43.992 136.07 43.992C135.046 43.992 133.851 44.3973 132.486 45.208C131.163 46.0187 129.798 47.0853 128.39 48.408C127.024 49.688 125.659 51.1813 124.294 52.888C122.928 54.552 121.712 56.2587 120.646 58.008C119.622 59.7573 118.768 61.464 118.086 63.128C117.446 64.792 117.126 66.2853 117.126 67.608C117.126 67.9067 117.147 68.0987 117.19 68.184C117.232 68.2267 117.296 68.248 117.382 68.248C117.766 68.248 118.278 68.0347 118.918 67.608C119.6 67.1813 120.347 66.648 121.158 66.008C122.011 65.3253 122.886 64.5573 123.782 63.704C124.678 62.808 125.531 61.912 126.342 61.016C128.176 58.968 129.84 56.6853 131.334 54.168C132.87 51.608 134.086 49.1333 134.982 46.744C136.134 46.8293 137.158 47.0213 138.054 47.32C138.95 47.6187 139.568 47.9387 139.91 48.28C138.459 51.608 137.286 54.4027 136.39 56.664C135.536 58.9253 134.79 60.9307 134.15 62.68C132.998 65.752 131.91 68.5467 130.886 71.064C129.904 73.624 128.88 75.9707 127.814 78.104C126.79 80.28 125.659 82.2853 124.422 84.12C123.227 85.9973 121.862 87.7893 120.326 89.496C119.6 90.3067 118.768 91.0107 117.83 91.608C116.934 92.248 115.995 92.7813 115.014 93.208C114.075 93.6347 113.136 93.9547 112.198 94.168C111.302 94.3813 110.47 94.488 109.702 94.488C108.678 94.488 107.632 94.36 106.566 94.104C105.499 93.8907 104.517 93.5707 103.621 93.144C102.683 92.76 101.872 92.2907 101.189 91.736C100.507 91.224 100.016 90.6693 99.7175 90.072ZM164.37 44.504C164.199 47.1493 163.73 49.432 162.962 51.352C162.194 53.2293 161.085 54.8933 159.634 56.344C158.226 57.752 156.498 59.032 154.45 60.184C152.402 61.336 150.013 62.4453 147.282 63.512C147.282 63.768 147.261 64.0453 147.218 64.344C147.218 64.6 147.218 64.8773 147.218 65.176C147.218 65.7307 147.261 66.3067 147.346 66.904C147.431 67.5013 147.581 68.056 147.794 68.568C148.007 69.08 148.306 69.5067 148.69 69.848C149.074 70.1467 149.565 70.296 150.162 70.296C151.314 70.296 152.445 70.04 153.554 69.528C154.663 69.016 155.709 68.3973 156.69 67.672C157.714 66.904 158.653 66.0933 159.506 65.24C160.402 64.344 161.191 63.5333 161.874 62.808C162.301 63.192 162.663 63.5547 162.962 63.896C161.042 66.456 158.93 68.5893 156.626 70.296C154.365 71.96 152.21 73.0267 150.162 73.496C147.218 73.1547 144.914 72.088 143.25 70.296C141.629 68.4613 140.818 66.264 140.818 63.704C140.818 61.9547 141.053 60.184 141.522 58.392C142.034 56.5573 142.717 54.808 143.57 53.144C144.466 51.4373 145.49 49.8373 146.642 48.344C147.837 46.8507 149.095 45.5493 150.418 44.44C151.783 43.3307 153.17 42.456 154.578 41.816C156.029 41.176 157.458 40.856 158.866 40.856C160.829 41.112 162.663 42.328 164.37 44.504ZM159.954 46.616C158.802 46.7867 157.607 47.256 156.37 48.024C155.133 48.792 153.959 49.816 152.85 51.096C151.783 52.376 150.802 53.8693 149.906 55.576C149.01 57.2827 148.306 59.1173 147.794 61.08C151.207 59.3733 154.045 57.2827 156.306 54.808C158.567 52.2907 159.783 49.56 159.954 46.616ZM165.797 69.72C166.01 68.4827 166.373 66.8613 166.885 64.856C167.44 62.808 168.08 60.6533 168.805 58.392C169.53 56.088 170.298 53.784 171.109 51.48C171.92 49.176 172.709 47.1067 173.477 45.272C174.032 43.9493 174.522 42.9253 174.949 42.2C175.376 41.432 175.845 40.792 176.357 40.28C176.954 40.3653 177.573 40.5147 178.213 40.728C178.853 40.9413 179.472 41.1973 180.069 41.496C180.666 41.7947 181.2 42.1147 181.669 42.456C182.138 42.7547 182.501 43.0533 182.757 43.352C181.605 44.7173 180.581 46.2747 179.685 48.024C178.832 49.7733 177.957 52.0133 177.061 54.744C179.365 52.696 181.392 50.7333 183.141 48.856C184.933 46.9787 186.597 44.888 188.133 42.584C188.389 42.3707 188.837 42.264 189.477 42.264C190.074 42.264 190.65 42.3707 191.205 42.584C191.76 42.7547 192.144 43.0107 192.357 43.352C191.589 45.4 191.205 47.4267 191.205 49.432C191.205 51.3093 191.482 52.7173 192.037 53.656C191.994 53.912 191.696 54.4027 191.141 55.128C190.629 55.8533 190.053 56.536 189.413 57.176C188.261 56.5787 187.237 55.768 186.341 54.744C185.445 53.6773 184.784 52.5253 184.357 51.288C182.352 52.696 180.645 54.0827 179.237 55.448C177.829 56.7707 176.613 58.264 175.589 59.928C174.608 61.5493 173.754 63.4267 173.029 65.56C172.346 67.6933 171.685 70.232 171.045 73.176C170.661 73.1333 170.192 72.984 169.637 72.728C169.125 72.5147 168.592 72.2373 168.037 71.896C167.525 71.5547 167.056 71.192 166.629 70.808C166.202 70.424 165.925 70.0613 165.797 69.72ZM195.752 67.672C196.392 66.264 197.16 64.4507 198.056 62.232C198.952 60.0133 199.891 57.624 200.872 55.064C201.853 52.4613 202.856 49.816 203.88 47.128C204.904 44.3973 205.864 41.816 206.76 39.384C207.656 36.952 208.424 34.776 209.064 32.856C209.747 30.936 210.237 29.464 210.536 28.44C207.848 29.5493 205.544 31.2347 203.624 33.496C201.704 35.7573 200.253 38.5947 199.272 42.008C198.291 41.6667 197.395 41.0693 196.584 40.216C195.773 39.32 195.24 38.2107 194.984 36.888C195.411 34.9253 196.2 33.1333 197.352 31.512C198.547 29.8907 200.04 28.504 201.832 27.352C203.624 26.2 205.693 25.3253 208.04 24.728C210.387 24.088 212.904 23.768 215.592 23.768C219.005 23.768 222.141 24.28 225 25.304C227.859 26.2853 230.312 27.672 232.36 29.464C234.408 31.256 236.008 33.4107 237.16 35.928C238.312 38.4453 238.888 41.24 238.888 44.312C238.888 48.4933 238.12 52.4827 236.584 56.28C235.048 60.0773 232.957 63.4267 230.312 66.328C227.709 69.2293 224.68 71.5333 221.224 73.24C217.768 74.9893 214.141 75.864 210.344 75.864C206.845 75.864 203.837 75.16 201.32 73.752C198.845 72.3867 196.989 70.36 195.752 67.672ZM218.344 26.968C216.211 26.968 214.184 27.2667 212.264 27.864C214.141 28.5467 215.699 29.272 216.936 30.04C218.173 30.7653 219.027 31.3413 219.496 31.768C219.155 32.2373 218.643 33.0693 217.96 34.264C217.32 35.4587 216.552 36.9093 215.656 38.616C214.803 40.3227 213.885 42.2 212.904 44.248C211.923 46.2533 210.963 48.3227 210.024 50.456C207.592 55.8747 205.821 60.1413 204.712 63.256C203.645 66.3707 203.112 68.5253 203.112 69.72C203.709 69.9333 204.435 70.0827 205.288 70.168C206.141 70.2533 207.059 70.296 208.04 70.296C211.496 70.296 214.76 69.5067 217.832 67.928C220.947 66.3067 223.656 64.152 225.96 61.464C228.307 58.776 230.141 55.6613 231.464 52.12C232.829 48.536 233.512 44.7813 233.512 40.856C233.512 36.4613 232.147 33.048 229.416 30.616C226.685 28.184 222.995 26.968 218.344 26.968ZM263.933 44.504C263.762 47.1493 263.293 49.432 262.525 51.352C261.757 53.2293 260.647 54.8933 259.197 56.344C257.789 57.752 256.061 59.032 254.013 60.184C251.965 61.336 249.575 62.4453 246.845 63.512C246.845 63.768 246.823 64.0453 246.781 64.344C246.781 64.6 246.781 64.8773 246.781 65.176C246.781 65.7307 246.823 66.3067 246.909 66.904C246.994 67.5013 247.143 68.056 247.357 68.568C247.57 69.08 247.869 69.5067 248.253 69.848C248.637 70.1467 249.127 70.296 249.725 70.296C250.877 70.296 252.007 70.04 253.117 69.528C254.226 69.016 255.271 68.3973 256.253 67.672C257.277 66.904 258.215 66.0933 259.069 65.24C259.965 64.344 260.754 63.5333 261.437 62.808C261.863 63.192 262.226 63.5547 262.525 63.896C260.605 66.456 258.493 68.5893 256.189 70.296C253.927 71.96 251.773 73.0267 249.725 73.496C246.781 73.1547 244.477 72.088 242.812 70.296C241.191 68.4613 240.381 66.264 240.381 63.704C240.381 61.9547 240.615 60.184 241.085 58.392C241.597 56.5573 242.279 54.808 243.133 53.144C244.029 51.4373 245.053 49.8373 246.205 48.344C247.399 46.8507 248.658 45.5493 249.981 44.44C251.346 43.3307 252.733 42.456 254.141 41.816C255.591 41.176 257.021 40.856 258.429 40.856C260.391 41.112 262.226 42.328 263.933 44.504ZM259.517 46.616C258.365 46.7867 257.17 47.256 255.933 48.024C254.695 48.792 253.522 49.816 252.413 51.096C251.346 52.376 250.365 53.8693 249.469 55.576C248.573 57.2827 247.869 59.1173 247.357 61.08C250.77 59.3733 253.607 57.2827 255.869 54.808C258.13 52.2907 259.346 49.56 259.517 46.616ZM266.832 66.904C266.832 65.0267 267.28 62.4027 268.176 59.032C269.072 55.6187 270.33 51.6507 271.952 47.128C274.597 39.9173 277.072 33.9227 279.376 29.144C281.722 24.3227 284.005 20.568 286.224 17.88C286.736 17.9653 287.354 18.1787 288.08 18.52C288.848 18.8613 289.594 19.2453 290.32 19.672C291.045 20.056 291.685 20.4613 292.24 20.888C292.837 21.3147 293.221 21.656 293.392 21.912C290.064 25.8373 287.141 30.0613 284.624 34.584C282.106 39.1067 279.802 44.2907 277.712 50.136C275.92 55.1707 274.554 59.7147 273.616 63.768C272.677 67.7787 272.208 71.128 272.208 73.816C272.208 74.5413 272.208 74.9893 272.208 75.16C272.208 75.3307 272.229 75.5013 272.272 75.672C271.674 75.5867 271.162 75.4373 270.736 75.224C270.309 75.0107 270.032 74.7547 269.904 74.456C269.818 74.2427 269.584 73.9227 269.2 73.496C268.816 73.112 268.474 72.8133 268.176 72.6C267.792 72.344 267.472 71.6827 267.216 70.616C266.96 69.5067 266.832 68.2693 266.832 66.904ZM282.085 66.712C282.085 66.328 282.106 65.8587 282.149 65.304C282.234 64.7067 282.362 63.9387 282.533 63C282.703 62.0187 282.917 60.8453 283.173 59.48C283.471 58.1147 283.834 56.472 284.26 54.552C284.346 54.1253 284.538 53.4427 284.837 52.504C285.135 51.5653 285.519 50.584 285.989 49.56C286.501 48.4933 287.098 47.4693 287.781 46.488C288.506 45.5067 289.359 44.7813 290.341 44.312C291.066 44.4827 292.026 44.9307 293.221 45.656C294.415 46.3387 295.439 47.2987 296.293 48.536C295.311 49.6453 294.479 50.7547 293.797 51.864C293.157 52.9733 292.559 54.1253 292.005 55.32C291.493 56.5147 291.002 57.752 290.533 59.032C290.106 60.312 289.615 61.656 289.061 63.064C288.591 64.2587 288.165 65.496 287.781 66.776C287.397 68.0133 287.183 69.1013 287.141 70.04C287.141 70.808 287.119 71.3413 287.077 71.64C287.077 71.9813 286.97 72.152 286.757 72.152C286.586 72.152 286.245 72.0453 285.733 71.832C285.221 71.6187 284.687 71.2987 284.133 70.872C283.621 70.4027 283.151 69.8267 282.725 69.144C282.298 68.4613 282.085 67.6507 282.085 66.712ZM294.309 38.936C294.309 38.68 294.373 38.296 294.501 37.784C294.287 37.5707 294.095 37.2507 293.925 36.824C293.797 36.3973 293.733 36.0133 293.733 35.672C293.733 35.288 293.775 34.776 293.861 34.136C293.989 33.4533 294.138 32.728 294.309 31.96C294.479 31.192 294.693 30.4027 294.949 29.592C295.205 28.7387 295.461 27.9707 295.717 27.288C296.229 27.288 296.847 27.4373 297.573 27.736C298.341 27.992 299.109 28.3547 299.877 28.824C300.645 29.2507 301.349 29.7413 301.989 30.296C302.629 30.808 303.119 31.2987 303.461 31.768C302.991 32.2373 302.373 32.8987 301.605 33.752C300.837 34.5627 300.09 35.4373 299.365 36.376C298.639 37.272 297.978 38.1253 297.381 38.936C296.783 39.7467 296.399 40.3227 296.229 40.664C295.717 40.5787 295.269 40.3653 294.885 40.024C294.501 39.64 294.309 39.2773 294.309 38.936ZM300.666 48.344C300.666 47.576 300.708 46.8507 300.794 46.168C300.922 45.4853 301.156 44.9093 301.498 44.44C301.839 43.928 302.308 43.544 302.906 43.288C303.503 42.9893 304.292 42.84 305.274 42.84C305.871 42.84 306.532 42.904 307.258 43.032C308.026 43.16 308.58 43.3947 308.922 43.736C308.751 44.4613 308.602 45.1013 308.474 45.656C308.388 46.2107 308.303 46.8293 308.218 47.512C308.175 48.152 308.132 48.9413 308.09 49.88C308.047 50.776 308.004 51.9493 307.962 53.4C307.876 56.3013 307.727 58.904 307.514 61.208C307.343 63.4693 306.916 65.7307 306.234 67.992C306.234 68.1627 306.298 68.248 306.426 68.248C307.066 67.7787 307.791 67.096 308.602 66.2C309.412 65.304 310.266 64.3013 311.162 63.192C312.058 62.04 312.954 60.824 313.85 59.544C314.746 58.264 315.578 57.0053 316.346 55.768C317.37 53.976 318.5 51.736 319.738 49.048C320.975 46.36 321.999 43.48 322.81 40.408C323.066 40.408 323.386 40.472 323.77 40.6C324.196 40.6853 324.602 40.8133 324.986 40.984C325.412 41.112 325.775 41.2613 326.074 41.432C326.415 41.6027 326.65 41.752 326.778 41.88C326.692 43.7147 326.244 45.592 325.434 47.512C324.666 49.432 323.727 51.288 322.618 53.08C321.508 54.872 320.335 56.5573 319.098 58.136C317.86 59.7147 316.73 61.08 315.706 62.232C313.658 64.6213 311.588 66.7547 309.498 68.632C307.45 70.5093 304.996 72.3227 302.138 74.072C301.028 73.6453 300.154 73.0693 299.514 72.344C298.874 71.6613 298.554 70.936 298.554 70.168C298.554 69.656 298.66 69.08 298.874 68.44C299.13 67.7573 299.407 66.904 299.706 65.88C300.004 64.8133 300.26 63.4907 300.474 61.912C300.73 60.3333 300.858 58.328 300.858 55.896C300.858 54.488 300.815 53.08 300.73 51.672C300.687 50.2213 300.666 49.112 300.666 48.344ZM348.745 44.504C348.574 47.1493 348.105 49.432 347.337 51.352C346.569 53.2293 345.46 54.8933 344.009 56.344C342.601 57.752 340.873 59.032 338.825 60.184C336.777 61.336 334.388 62.4453 331.657 63.512C331.657 63.768 331.636 64.0453 331.593 64.344C331.593 64.6 331.593 64.8773 331.593 65.176C331.593 65.7307 331.636 66.3067 331.721 66.904C331.806 67.5013 331.956 68.056 332.169 68.568C332.382 69.08 332.681 69.5067 333.065 69.848C333.449 70.1467 333.94 70.296 334.537 70.296C335.689 70.296 336.82 70.04 337.929 69.528C339.038 69.016 340.084 68.3973 341.065 67.672C342.089 66.904 343.028 66.0933 343.881 65.24C344.777 64.344 345.566 63.5333 346.249 62.808C346.676 63.192 347.038 63.5547 347.337 63.896C345.417 66.456 343.305 68.5893 341.001 70.296C338.74 71.96 336.585 73.0267 334.537 73.496C331.593 73.1547 329.289 72.088 327.625 70.296C326.004 68.4613 325.193 66.264 325.193 63.704C325.193 61.9547 325.428 60.184 325.897 58.392C326.409 56.5573 327.092 54.808 327.945 53.144C328.841 51.4373 329.865 49.8373 331.017 48.344C332.212 46.8507 333.47 45.5493 334.793 44.44C336.158 43.3307 337.545 42.456 338.953 41.816C340.404 41.176 341.833 40.856 343.241 40.856C345.204 41.112 347.038 42.328 348.745 44.504ZM344.329 46.616C343.177 46.7867 341.982 47.256 340.745 48.024C339.508 48.792 338.334 49.816 337.225 51.096C336.158 52.376 335.177 53.8693 334.281 55.576C333.385 57.2827 332.681 59.1173 332.169 61.08C335.582 59.3733 338.42 57.2827 340.681 54.808C342.942 52.2907 344.158 49.56 344.329 46.616ZM350.172 69.72C350.385 68.4827 350.748 66.8613 351.26 64.856C351.815 62.808 352.455 60.6533 353.18 58.392C353.905 56.088 354.673 53.784 355.484 51.48C356.295 49.176 357.084 47.1067 357.852 45.272C358.407 43.9493 358.897 42.9253 359.324 42.2C359.751 41.432 360.22 40.792 360.732 40.28C361.329 40.3653 361.948 40.5147 362.588 40.728C363.228 40.9413 363.847 41.1973 364.444 41.496C365.041 41.7947 365.575 42.1147 366.044 42.456C366.513 42.7547 366.876 43.0533 367.132 43.352C365.98 44.7173 364.956 46.2747 364.06 48.024C363.207 49.7733 362.332 52.0133 361.436 54.744C363.74 52.696 365.767 50.7333 367.516 48.856C369.308 46.9787 370.972 44.888 372.508 42.584C372.764 42.3707 373.212 42.264 373.852 42.264C374.449 42.264 375.025 42.3707 375.58 42.584C376.135 42.7547 376.519 43.0107 376.732 43.352C375.964 45.4 375.58 47.4267 375.58 49.432C375.58 51.3093 375.857 52.7173 376.412 53.656C376.369 53.912 376.071 54.4027 375.516 55.128C375.004 55.8533 374.428 56.536 373.788 57.176C372.636 56.5787 371.612 55.768 370.716 54.744C369.82 53.6773 369.159 52.5253 368.732 51.288C366.727 52.696 365.02 54.0827 363.612 55.448C362.204 56.7707 360.988 58.264 359.964 59.928C358.983 61.5493 358.129 63.4267 357.404 65.56C356.721 67.6933 356.06 70.232 355.42 73.176C355.036 73.1333 354.567 72.984 354.012 72.728C353.5 72.5147 352.967 72.2373 352.412 71.896C351.9 71.5547 351.431 71.192 351.004 70.808C350.577 70.424 350.3 70.0613 350.172 69.72ZM401.585 61.08C400.603 64.1947 399.622 67.032 398.641 69.592C397.659 72.152 396.614 74.4987 395.505 76.632C394.395 78.808 393.201 80.792 391.921 82.584C390.641 84.4187 389.233 86.1467 387.697 87.768C385.734 89.816 383.707 91.3733 381.617 92.44C379.526 93.5493 377.435 94.104 375.345 94.104C374.278 94.104 373.211 93.976 372.145 93.72C371.12 93.5067 370.16 93.1867 369.264 92.76C368.326 92.376 367.515 91.9067 366.832 91.352C366.107 90.84 365.595 90.2853 365.296 89.688C365.296 89.176 365.595 88.728 366.192 88.344C366.704 88.8133 367.131 89.176 367.472 89.432C367.814 89.688 368.155 89.9013 368.496 90.072C368.795 90.2427 369.136 90.3493 369.52 90.392C369.862 90.4347 370.267 90.456 370.736 90.456C373.169 90.456 375.537 89.7307 377.841 88.28C380.187 86.872 382.385 84.8453 384.433 82.2C386.523 79.5973 388.422 76.4187 390.128 72.664C391.835 68.952 393.286 64.792 394.481 60.184C393.926 61.0373 393.243 62.0827 392.433 63.32C391.622 64.5573 390.726 65.7947 389.745 67.032C388.763 68.2267 387.739 69.3147 386.673 70.296C385.649 71.2773 384.646 71.9387 383.665 72.28C382.982 72.2373 382.257 72.088 381.489 71.832C380.763 71.6187 380.059 71.2987 379.377 70.872C378.737 70.4453 378.161 69.9333 377.649 69.336C377.137 68.7387 376.795 68.056 376.625 67.288C376.625 66.0507 376.667 65.0693 376.753 64.344C376.838 63.576 376.987 62.744 377.201 61.848C377.585 60.2267 378.139 58.392 378.865 56.344C379.633 54.296 380.507 52.2907 381.489 50.328C382.513 48.3227 383.622 46.4667 384.817 44.76C386.054 43.0107 387.334 41.6453 388.657 40.664C388.998 40.664 389.425 40.7067 389.937 40.792C390.449 40.8347 390.982 40.9413 391.537 41.112C392.091 41.2827 392.625 41.496 393.137 41.752C393.649 41.9653 394.097 42.264 394.481 42.648C394.011 43.0747 392.987 44.504 391.409 46.936C389.83 49.368 388.081 52.8667 386.161 57.432C385.947 57.9013 385.691 58.584 385.393 59.48C385.094 60.376 384.795 61.3147 384.497 62.296C384.241 63.2773 384.006 64.2373 383.793 65.176C383.579 66.1147 383.473 66.8613 383.473 67.416C383.473 67.7573 383.515 68.0133 383.601 68.184C383.729 68.3547 383.835 68.4827 383.921 68.568C384.689 68.44 385.713 67.8213 386.993 66.712C388.273 65.56 389.723 63.7893 391.345 61.4C392.369 59.864 393.307 58.3493 394.161 56.856C395.014 55.32 395.846 53.784 396.657 52.248C397.51 50.712 398.385 49.1333 399.281 47.512C400.177 45.8907 401.137 44.2267 402.161 42.52C402.715 42.52 403.313 42.584 403.953 42.712C404.593 42.84 405.211 43.0107 405.809 43.224C406.406 43.3947 406.918 43.608 407.345 43.864C407.814 44.0773 408.155 44.312 408.369 44.568C407.046 47.384 405.809 50.136 404.657 52.824C403.505 55.512 402.481 58.264 401.585 61.08Z" fill="white"/>
</svg>
